<?xml version="1.0" standalone="no"?>
<!DOCTYPE svg PUBLIC "-//W3C//DTD SVG 20010904//EN"
 "http://www.w3.org/TR/2001/REC-SVG-20010904/DTD/svg10.dtd">
<svg version="1.0" xmlns="http://www.w3.org/2000/svg"
 width="240.000000pt" height="183.000000pt" viewBox="0 0 240.000000 183.000000"
 preserveAspectRatio="xMidYMid meet">

<g transform="translate(0.000000,183.000000) scale(0.100000,-0.100000)"
fill="#000000" stroke="none">
<path d="M1901 1789 c-14 -5 -53 -7 -87 -4 -48 5 -71 2 -98 -10 -20 -10 -42
-15 -50 -12 -8 3 -26 -3 -40 -14 -13 -11 -39 -25 -57 -33 l-32 -13 23 -23 c20
-20 22 -27 12 -54 -6 -17 -10 -67 -10 -111 1 -126 -10 -185 -36 -195 -12 -4
-28 -15 -35 -24 -12 -14 -11 -20 9 -41 13 -14 31 -25 41 -25 16 0 16 3 4 27
-16 31 -13 38 16 46 20 5 21 4 7 -9 -12 -13 -13 -23 -5 -49 13 -43 4 -76 -33
-115 -16 -18 -30 -36 -30 -41 0 -5 -5 -9 -11 -9 -10 0 -44 -68 -41 -82 1 -5
-3 -7 -9 -5 -6 1 -14 -4 -17 -12 -3 -8 0 -11 6 -7 11 6 17 -11 41 -106 9 -35
8 -37 -10 -28 -24 14 -26 -5 -1 -19 14 -9 14 -10 1 -11 -22 0 -39 20 -39 46 0
13 -6 29 -13 36 -8 7 -12 20 -10 28 2 8 -4 1 -13 -17 -15 -27 -16 -38 -5 -72
6 -22 22 -53 35 -68 21 -25 24 -39 23 -95 -1 -49 3 -71 15 -85 9 -10 19 -30
22 -45 2 -14 11 -37 19 -50 9 -12 19 -44 22 -71 4 -26 12 -50 17 -53 7 -5 8 7
3 32 -13 61 -9 226 5 259 7 17 12 38 11 49 -2 12 1 16 9 11 8 -5 10 -22 7 -46
-6 -45 3 -49 31 -14 l20 25 38 -60 c33 -53 121 -130 146 -130 12 0 39 71 32
82 -11 17 -10 99 1 106 5 4 10 14 10 22 0 10 10 15 27 15 24 -1 30 6 49 55 12
30 26 59 30 64 4 5 3 19 -1 32 -11 28 -4 51 20 64 23 13 30 3 23 -31 -4 -22
-2 -29 10 -29 8 0 18 7 21 16 12 31 26 1 25 -50 -1 -29 1 -58 5 -65 4 -6 3
-11 -2 -11 -5 0 -9 -16 -9 -35 1 -24 7 -37 19 -41 10 -3 18 -13 18 -21 0 -23
8 -13 14 17 2 14 8 41 12 60 3 19 13 41 22 47 14 11 14 15 -2 32 -12 13 -15
27 -10 45 7 28 66 86 88 86 8 0 28 -19 45 -42 l31 -42 0 35 c0 26 -9 44 -35
72 -27 29 -34 43 -30 64 16 91 16 102 2 123 -8 11 -34 31 -57 43 -38 19 -45
28 -56 72 -7 28 -11 52 -9 54 9 8 -26 60 -45 66 -22 7 -28 25 -8 25 6 0 2 10
-9 23 -38 42 -45 66 -38 133 6 55 4 65 -14 83 -12 12 -21 25 -21 31 0 5 -8 19
-17 30 -11 12 -16 32 -15 50 2 17 2 30 0 29 -2 0 -14 -5 -27 -10z m-1 -283
c14 -61 9 -141 -15 -209 -17 -48 -20 -127 -5 -127 6 0 8 -15 6 -35 -3 -26 -21
-51 -74 -105 -38 -38 -77 -70 -88 -70 -42 0 -123 -67 -124 -102 0 -10 -5 -18
-12 -18 -6 0 -22 -10 -35 -22 -13 -12 -23 -16 -23 -10 0 7 12 20 28 30 15 9
28 23 29 29 3 15 -27 93 -36 93 -3 1 -17 10 -30 20 -19 17 -21 23 -11 35 12
14 16 13 39 -8 34 -32 65 -38 91 -20 30 21 24 67 -10 70 -14 1 -19 0 -12 -3
11 -5 18 -34 8 -34 -20 0 -36 16 -36 37 0 39 17 61 64 82 60 26 65 50 27 108
-39 58 -61 131 -61 199 0 50 1 52 31 58 17 3 50 6 73 6 22 1 66 12 96 25 30
13 58 24 61 24 3 1 12 -23 19 -53z m233 -456 c24 -42 52 -108 42 -98 -4 4 -17
3 -29 -2 -28 -10 -30 -9 -88 61 -54 64 -50 82 16 77 33 -3 43 -9 59 -38z
m-619 -98 c16 -32 7 -58 -18 -49 -16 7 -21 33 -10 61 8 22 11 20 28 -12z m306
-1 c0 -10 7 -24 15 -31 30 -25 9 -86 -45 -128 -37 -28 -57 -33 -85 -20 -46 21
-24 81 62 166 38 36 53 40 53 13z m-109 -29 c-5 -10 -17 -25 -26 -32 -14 -12
-18 -11 -26 1 -6 10 -3 19 12 32 29 24 53 23 40 -1z m-121 -117 c-7 -9 -15
-13 -19 -10 -3 3 1 10 9 15 21 14 24 12 10 -5z m-85 -105 c-3 -5 -1 -10 4 -10
20 0 11 -17 -14 -28 -29 -14 -31 -10 -9 23 15 23 32 37 19 15z m-15 -85 c0 -8
-8 -15 -17 -14 -11 0 -13 3 -5 6 6 2 10 9 6 14 -3 5 0 9 5 9 6 0 11 -7 11 -15z"/>
<path d="M1811 1517 c-24 -12 -37 -23 -29 -25 14 -3 88 34 88 44 0 8 -16 3
-59 -19z"/>
<path d="M1816 1479 c-14 -11 -26 -26 -26 -32 0 -9 2 -9 8 -1 4 6 22 11 40 11
34 0 32 -11 -3 -20 -16 -4 -14 -5 6 -6 28 -1 66 40 54 59 -10 17 -51 11 -79
-11z"/>
<path d="M1673 1474 c16 -8 36 -13 44 -10 21 9 15 12 -32 20 l-40 6 28 -16z"/>
<path d="M1633 1438 c2 -7 9 -13 15 -12 7 1 26 2 43 3 45 2 25 21 -22 21 -28
0 -39 -4 -36 -12z"/>
<path d="M1718 1322 c-16 -2 -28 -5 -28 -8 0 -12 40 -82 54 -93 29 -24 63 -5
80 45 9 26 13 50 10 55 -5 9 -53 9 -116 1z m88 -27 c-11 -8 -29 -15 -41 -15
-12 0 -30 7 -41 15 -17 13 -14 14 41 14 55 0 58 -1 41 -14z"/>
<path d="M1321 1578 c-8 -22 -8 -35 -1 -42 13 -13 27 1 35 35 10 41 -20 46
-34 7z"/>
<path d="M2020 1576 c0 -2 8 -10 18 -17 15 -13 16 -12 3 4 -13 16 -21 21 -21
13z"/>
<path d="M1049 1553 c-13 -16 -12 -17 4 -4 9 7 17 15 17 17 0 8 -8 3 -21 -13z"/>
<path d="M2100 1505 c13 -14 26 -25 28 -25 3 0 -5 11 -18 25 -13 14 -26 25
-28 25 -3 0 5 -11 18 -25z"/>
<path d="M939 1443 c-13 -16 -12 -17 4 -4 9 7 17 15 17 17 0 8 -8 3 -21 -13z"/>
<path d="M2150 1446 c0 -2 8 -10 18 -17 15 -13 16 -12 3 4 -13 16 -21 21 -21
13z"/>
<path d="M1207 1329 c7 -7 15 -10 18 -7 3 3 -2 9 -12 12 -14 6 -15 5 -6 -5z"/>
<path d="M901 829 c-69 -12 -81 -22 -81 -71 0 -31 -3 -39 -14 -35 -16 6 -30
-19 -16 -28 6 -4 7 -13 1 -23 -5 -9 -11 -28 -12 -42 -5 -30 -48 -44 -88 -28
l-26 9 23 -23 c22 -24 31 -55 12 -43 -13 8 -50 -17 -51 -35 -1 -8 -4 -1 -8 15
-4 21 -16 34 -38 44 -40 18 -42 34 -7 49 18 9 31 9 47 1 21 -10 21 -10 3 5
-11 9 -27 16 -35 16 -19 0 -81 -37 -81 -48 0 -4 -15 -14 -34 -20 -23 -8 -41
-25 -53 -48 -10 -19 -22 -35 -28 -34 -5 1 -12 -7 -16 -17 -7 -17 -8 -17 -8 0
-1 25 25 74 46 86 10 6 13 11 6 11 -21 0 -65 -67 -70 -108 -6 -45 13 -90 52
-120 l26 -20 -30 -7 c-16 -3 -35 -12 -41 -20 -14 -17 7 -30 70 -40 41 -7 43
-9 23 -18 -28 -12 -30 -27 -5 -27 11 0 27 -9 37 -20 10 -12 33 -30 51 -41 24
-14 31 -25 27 -40 -5 -18 -2 -19 23 -13 16 4 37 11 46 15 23 12 55 11 80 -2
20 -11 20 -12 -8 -35 -25 -20 -27 -25 -14 -34 21 -16 212 -5 278 15 59 18 69
42 22 51 -33 7 -37 16 -17 33 8 6 22 28 31 48 13 29 28 43 62 57 26 10 83 40
128 66 64 37 95 48 139 52 63 5 81 15 54 29 -17 10 -24 68 -9 83 7 7 8 11 11
37 0 5 6 7 11 4 6 -3 10 1 10 9 0 21 -25 10 -38 -17 -9 -19 -11 -19 -11 -4 -1
10 -14 29 -30 42 -15 14 -34 39 -41 56 -13 30 -14 31 -69 26 l-56 -5 53 10
c39 8 52 15 47 25 -3 8 -5 28 -5 44 0 22 -6 32 -22 38 l-23 8 23 7 c33 11 27
26 -12 26 -18 0 -46 4 -62 10 -16 5 -78 14 -139 19 l-110 10 155 -4 c168 -4
245 7 125 18 -93 9 -247 7 -314 -4z m105 -39 c71 -6 142 -13 158 -16 28 -6 28
-8 22 -52 -3 -25 -10 -50 -14 -54 -4 -4 -30 -1 -57 7 -28 8 -84 19 -125 25
l-75 9 81 -4 c45 -2 101 -11 125 -19 24 -8 44 -14 45 -13 1 1 4 18 8 37 6 35
5 36 -26 38 -18 2 -35 6 -38 11 -3 4 -28 11 -57 14 -48 5 -51 4 -57 -19 -8
-31 -22 -31 -30 1 -9 37 -46 34 -46 -4 0 -34 -14 -47 -57 -53 -33 -5 -33 -4
-33 38 0 30 5 46 18 53 21 13 6 13 158 1z m-35 -131 c48 -11 92 -26 97 -32 18
-24 21 -75 6 -137 -19 -82 -20 -83 -55 -63 -21 12 -29 25 -29 44 0 15 -6 34
-14 42 -8 7 -16 25 -18 38 -2 17 -9 24 -24 23 -13 0 -20 5 -17 12 2 6 -3 14
-11 17 -9 4 -16 13 -16 20 0 11 -36 16 -47 7 -2 -2 -7 -3 -12 -4 -5 0 -13 -4
-17 -8 -18 -19 -32 -8 -25 19 12 46 57 52 182 22z m292 -6 c-7 -2 -21 -2 -30
0 -10 3 -4 5 12 5 17 0 24 -2 18 -5z m-87 -21 c-2 -4 -24 -9 -48 -9 -35 -1
-38 0 -18 7 33 11 72 12 66 2z m-326 -37 c0 -17 -28 -20 -50 -4 -11 8 -8 9 13
4 19 -4 26 -2 22 5 -3 5 -1 10 4 10 6 0 11 -7 11 -15z m-83 -41 c-1 -20 -3
-32 -5 -25 -2 6 -10 11 -18 11 -17 0 -19 36 -1 43 23 10 25 7 24 -29z m101 16
c-7 -10 -14 -17 -17 -15 -4 4 18 35 25 35 2 0 -1 -9 -8 -20z m-328 -20 c0 -5
-7 -10 -15 -10 -8 0 -15 -8 -15 -17 0 -15 -2 -14 -15 3 -21 28 -18 34 15 34
17 0 30 -4 30 -10z m288 -35 c-3 -3 -9 2 -12 12 -6 14 -5 15 5 6 7 -7 10 -15
7 -18z m-69 -17 c6 -18 7 -28 2 -23 -10 12 -25 55 -18 55 3 0 10 -15 16 -32z
m56 1 c6 -17 12 -20 33 -14 15 4 47 8 72 10 l45 4 -50 -15 c-27 -8 -63 -22
-80 -29 -21 -10 -33 -11 -42 -3 -18 14 -16 28 2 28 13 0 14 4 5 20 -7 12 -7
20 -1 20 5 0 13 -9 16 -21z m-318 -26 c-3 -3 -11 -2 -17 2 -9 6 -9 10 1 16 14
8 27 -7 16 -18z m260 -15 c18 -15 16 -26 -9 -39 -18 -10 -24 -8 -39 12 -15 20
-19 21 -33 10 -14 -12 -16 -11 -9 5 3 10 11 22 17 27 13 8 55 0 73 -15z m583
-11 c0 -22 -4 -28 -16 -23 -9 3 -24 6 -35 6 -28 0 -23 19 6 26 14 3 23 9 20
13 -2 4 2 8 10 8 10 0 15 -11 15 -30z m-783 -13 c20 -19 22 -24 7 -16 -21 11
-51 42 -41 42 3 0 19 -12 34 -26z m437 -13 c3 -4 -13 -14 -34 -21 -22 -7 -40
-17 -40 -22 0 -4 -6 -7 -12 -5 -7 1 -12 -4 -11 -10 2 -7 -8 -20 -22 -29 -14
-9 -22 -20 -19 -25 3 -5 0 -9 -6 -9 -6 0 -8 -4 -5 -10 3 -5 1 -10 -5 -10 -6 0
-8 -4 -5 -10 3 -5 1 -10 -5 -10 -7 0 -10 -7 -6 -15 3 -8 1 -15 -4 -15 -5 0 -8
-18 -7 -40 3 -50 -17 -60 -39 -18 -18 35 -13 79 17 142 40 82 83 116 150 116
26 0 50 -4 53 -9z m-374 -21 c8 -5 11 -10 5 -10 -5 0 -17 5 -25 10 -8 5 -10
10 -5 10 6 0 17 -5 25 -10z m95 0 c3 -5 2 -17 -3 -26 -8 -14 -10 -14 -24 0 -9
8 -18 12 -22 9 -3 -4 -6 1 -6 10 0 19 44 24 55 7z m-233 -22 c-9 -9 -7 -14 7
-22 10 -6 42 -28 72 -48 38 -27 48 -39 37 -43 -10 -4 -32 9 -59 34 -24 22 -48
39 -53 39 -18 0 -29 34 -15 43 20 12 25 11 11 -3z m554 -20 c45 -86 -52 -268
-143 -268 -56 0 -75 55 -48 146 22 76 95 154 143 154 25 0 35 -6 48 -32z
m-391 -88 c-10 -11 -23 -20 -28 -20 -6 0 -2 9 8 20 10 11 23 20 28 20 6 0 2
-9 -8 -20z m13 -46 c-9 -9 -22 -14 -30 -11 -8 3 -4 8 12 15 35 15 37 14 18 -4z"/>
<path d="M843 745 c0 -22 2 -30 4 -17 2 12 2 30 0 40 -3 9 -5 -1 -4 -23z"/>
<path d="M1138 763 c7 -3 16 -2 19 1 4 3 -2 6 -13 5 -11 0 -14 -3 -6 -6z"/>
<path d="M990 615 c-11 -13 -10 -14 4 -9 9 3 16 10 16 15 0 13 -6 11 -20 -6z"/>
<path d="M1045 490 c-4 -12 -5 -24 -2 -27 3 -2 8 5 12 17 4 12 5 24 2 27 -3 2
-8 -5 -12 -17z"/>
<path d="M935 336 c-18 -13 -18 -14 8 -9 16 3 27 1 27 -6 0 -6 -5 -11 -11 -11
-6 0 -3 -7 5 -16 22 -21 20 -31 -6 -38 -45 -12 -52 -8 -33 20 16 26 16 26 -7
19 -28 -9 -35 -19 -48 -67 -30 -109 49 -128 117 -28 59 86 19 188 -52 136z"/>
<path d="M945 270 c-3 -6 1 -7 9 -4 18 7 21 14 7 14 -6 0 -13 -4 -16 -10z"/>
<path d="M421 517 c-13 -21 -12 -21 5 -5 10 10 16 20 13 22 -3 3 -11 -5 -18
-17z"/>
<path d="M1874 495 c-18 -45 -18 -52 5 -64 17 -10 18 -6 17 44 0 30 -2 55 -4
55 -2 0 -10 -16 -18 -35z"/>
<path d="M1400 449 c0 -5 5 -7 10 -4 6 3 10 8 10 11 0 2 -4 4 -10 4 -5 0 -10
-5 -10 -11z"/>
<path d="M2149 433 c-13 -16 -12 -17 4 -4 16 13 21 21 13 21 -2 0 -10 -8 -17
-17z"/>
<path d="M2039 323 c-13 -16 -12 -17 4 -4 9 7 17 15 17 17 0 8 -8 3 -21 -13z"/>
<path d="M1505 300 c-3 -6 1 -7 9 -4 18 7 21 14 7 14 -6 0 -13 -4 -16 -10z"/>
<path d="M1521 164 c0 -11 3 -14 6 -6 3 7 2 16 -1 19 -3 4 -6 -2 -5 -13z"/>
</g>
</svg>
